# xmcd
# 
# Track frame offsets:
#     150
#     18292
#     32733
#     58016
#     71044
#     92075
#     123733
#     149161
#     172367
#     184737
#     202579
#     233561
#     244401
# 
# Disc length: 3613
# 
# Revision: 0
# Processed by: cddbd v1.5.2PL0 Copyright (c) Steve Scherf et al.
# Submitted via: BonkEnc v1.0.8
# 
DISCID=c00e1b0d
DTITLE=Jazz Artists - Clove Code
DYEAR=0
DGENRE=Jazz
TTITLE0=Norbert Gottschalk - Tears in Heaven
TTITLE1=Greetji Kauffeld - Nature Boy
TTITLE2=Ann Malcolm - One More Kiss
TTITLE3=Allan Harris - Don't Blame Me
TTITLE4=BarBara Morrison - Don't Tka Your Love from Me
TTITLE5=Ann Malcolm - You Go to My Head
TTITLE6=Norbert Gottschalk - Always and Forever
TTITLE7=Allan Harris - My One and Only Love
TTITLE8=Allan Harris - You'd Be So Nice to Come Home to
TTITLE9=Yvonne Walter - Do It
TTITLE10=Nacy King - Moonlight to You
TTITLE11=Allan Harris - Softly as in A Morning Sunrise
TTITLE12=Allan Harris - Castle of Love
EXTD=
EXTT0=
EXTT1=
EXTT2=
EXTT3=
EXTT4=
EXTT5=
EXTT6=
EXTT7=
EXTT8=
EXTT9=
EXTT10=
EXTT11=
EXTT12=
PLAYORDER=
